<svg width="201" height="200" viewBox="0 0 201 200" fill="none" xmlns="http://www.w3.org/2000/svg">
<rect width="200" height="200" fill="#0A0F14"/>
<path d="M44.38 135.4V139.62H48.6V135.4H44.38ZM73.96 52H36V139.62H40.2V135.4H44.4V131.2H48.62V127H52.82V114.9H73.98C83.3 114.9 91.08 111.82 96.62 106.5C100.8 102.5 103.68 97.24 104.98 91.06C105.5 88.64 105.76 86.08 105.76 83.4C105.76 64.64 93.28 52.02 74 52.02L73.96 52ZM88.12 83.2599C88.12 85.5199 87.82 87.58 87.26 89.42C85.22 96.14 79.46 99.92 70.4 99.92H52.8V66.96H70.68C81.78 66.96 88.08 72.68 88.14 83.12V83.24L88.12 83.2599ZM40.2 139.62V143.82H44.4V139.62H40.2ZM36 143.8V148H40.2V143.8H36ZM48.6 131.2V135.4H52.8V131.2H48.6Z" fill="white"/>
<path d="M122.12 115.56L97.0402 148H80.2402L105.34 115.56L99.9802 105.78C103.38 101.8 105.74 96.9001 106.88 91.4601C107.08 90.5401 107.24 89.6001 107.36 88.6401L122.12 115.56Z" fill="url(#paint0_linear_777_6547)"/>
<path d="M122.12 115.58L139.9 148H156.7L138.9 115.58L164 83.1201H147.2L122.12 115.58Z" fill="url(#paint1_linear_777_6547)"/>
<path d="M72.9988 144.495V198.995C37.3328 189.828 9.16651 161.662 0 125.996H54.3326C58.8325 133.663 65.1656 140.162 72.9988 144.495Z" fill="url(#paint2_linear_777_6547)" fill-opacity="0.1"/>
<path d="M200.164 100.498C200.164 109.331 198.998 117.831 196.998 125.831C187.831 161.497 159.665 189.663 123.999 198.83V144.497C131.666 139.997 138.165 133.664 142.665 125.831C146.999 118.331 149.499 109.665 149.499 100.498C149.499 91.3317 146.999 82.4987 142.665 75.1655C138.165 67.499 131.832 60.9987 123.999 56.4988V2C159.665 11.1665 187.831 39.3327 196.998 74.9987C198.998 83.1652 200.164 91.6649 200.164 100.331V100.498Z" fill="url(#paint3_linear_777_6547)" fill-opacity="0.1"/>
<defs>
<linearGradient id="paint0_linear_777_6547" x1="101.18" y1="88.6401" x2="101.18" y2="148" gradientUnits="userSpaceOnUse">
<stop stop-color="#ED1F24"/>
<stop offset="1" stop-color="#8A0303"/>
</linearGradient>
<linearGradient id="paint1_linear_777_6547" x1="143.06" y1="83.1201" x2="143.06" y2="148" gradientUnits="userSpaceOnUse">
<stop stop-color="#ED1F24"/>
<stop offset="1" stop-color="#8A0303"/>
</linearGradient>
<linearGradient id="paint2_linear_777_6547" x1="36.4994" y1="125.996" x2="36.4994" y2="198.995" gradientUnits="userSpaceOnUse">
<stop stop-color="white"/>
<stop offset="1" stop-color="#0A0F14"/>
</linearGradient>
<linearGradient id="paint3_linear_777_6547" x1="162.082" y1="2" x2="162.082" y2="198.83" gradientUnits="userSpaceOnUse">
<stop stop-color="white"/>
<stop offset="1" stop-color="#0A0F14"/>
</linearGradient>
</defs>
</svg>
